<?xml version="1.0" encoding="UTF-8" standalone="no"?><svg xmlns="http://www.w3.org/2000/svg" xmlns:xlink="http://www.w3.org/1999/xlink" contentStyleType="text/css" height="850.2px" preserveAspectRatio="none" style="width:600px;height:850px;background:#FFFFFF;" version="1.1" viewBox="0 0 600 850" width="600.6px" zoomAndPan="magnify"><defs/><g><!--MD5=[c52f45833d539af9e29a9d34b8b7302b]
cluster utils--><g id="cluster_utils"><path d="M11.05,74.1 L51.35,74.1 A4.875,4.875 0 0 1 54.6,77.35 L63.7,102.2328 L219.05,102.2328 A3.25,3.25 0 0 1 222.3,105.4828 L222.3,837.85 A3.25,3.25 0 0 1 219.05,841.1 L11.05,841.1 A3.25,3.25 0 0 1 7.8,837.85 L7.8,77.35 A3.25,3.25 0 0 1 11.05,74.1 " fill="none" style="stroke:#000000;stroke-width:1.9500000000000002;"/><line style="stroke:#000000;stroke-width:1.9500000000000002;" x1="7.8" x2="63.7" y1="102.2328" y2="102.2328"/><text fill="#000000" font-family="sans-serif" font-size="18.2" font-weight="bold" lengthAdjust="spacing" textLength="39" x="13" y="93.176">utils</text></g><!--MD5=[01435ace8273dc3cae88e7f376e4d373]
cluster core--><g id="cluster_core"><path d="M261.95,7.8 L304.85,7.8 A4.875,4.875 0 0 1 308.1,11.05 L317.2,35.9328 L588.25,35.9328 A3.25,3.25 0 0 1 591.5,39.1828 L591.5,646.75 A3.25,3.25 0 0 1 588.25,650 L261.95,650 A3.25,3.25 0 0 1 258.7,646.75 L258.7,11.05 A3.25,3.25 0 0 1 261.95,7.8 " fill="none" style="stroke:#000000;stroke-width:1.9500000000000002;"/><line style="stroke:#000000;stroke-width:1.9500000000000002;" x1="258.7" x2="317.2" y1="35.9328" y2="35.9328"/><text fill="#000000" font-family="sans-serif" font-size="18.2" font-weight="bold" lengthAdjust="spacing" textLength="41.6" x="263.9" y="26.876">core</text></g><!--MD5=[be996cdb8e6bf2fc7cb89c555f2cd144]
class Entity--><g id="elem_Entity"><rect codeLine="6" fill="#F1F1F1" height="123.3984" id="Entity" rx="3.25" ry="3.25" style="stroke:#181818;stroke-width:0.65;" width="101.4" x="64.35" y="247.65"/><ellipse cx="90.285" cy="268.45" fill="#A9DCDF" rx="14.3" ry="14.3" style="stroke:#181818;stroke-width:1.3;"/><path d="M92.56,270.4 L88.2741,270.4 L87.7053,271.7 L87.7053,271.7 L88.3147,271.7 L88.985,272.5125 L88.985,273 L88.985,273.4875 L88.3147,274.3 L87.7053,274.3 L85.2475,274.3 L84.4553,274.3 L83.785,273.4875 L83.785,273 L83.785,272.5125 L84.4553,271.7 L85.2475,271.7 L88.2538,263.9 L87.1163,263.9 L85.7553,263.9 L85.085,263.0875 L85.085,262.6 L85.085,262.1125 L85.7553,261.3 L87.1163,261.3 L91.8897,261.3 L95.3834,271.7 L96.1147,271.7 L96.1147,271.7 L96.785,272.5125 L96.785,273 L96.785,273.4875 L96.1147,274.3 L95.3834,274.3 L92.9256,274.3 L92.2553,274.3 L91.585,273.4875 L91.585,273 L91.585,272.5125 L92.2553,271.7 L92.9256,271.7 L92.9256,271.7 L92.56,270.4 Z M91.8491,267.8 L90.285,263.1484 L88.9444,267.8 L91.8491,267.8 Z " fill="#000000"/><text fill="#000000" font-family="sans-serif" font-size="18.2" font-style="italic" lengthAdjust="spacing" textLength="45.5" x="109.915" y="274.7596">Entity</text><line style="stroke:#181818;stroke-width:0.65;" x1="65.65" x2="164.45" y1="289.25" y2="289.25"/><text fill="#000000" font-family="sans-serif" font-size="18.2" lengthAdjust="spacing" textLength="45.5" x="72.15" y="310.926">name</text><line style="stroke:#181818;stroke-width:0.65;" x1="65.65" x2="164.45" y1="319.9828" y2="319.9828"/><text fill="#000000" font-family="sans-serif" font-size="18.2" lengthAdjust="spacing" textLength="85.8" x="72.15" y="341.6588">getName()</text><text fill="#000000" font-family="sans-serif" font-size="18.2" lengthAdjust="spacing" textLength="66.3" x="72.15" y="361.9916">initiate()</text></g><!--MD5=[23e2bf194512072af1017549736a601d]
class MirrorInterface--><g id="elem_MirrorInterface"><rect codeLine="11" fill="#F1F1F1" height="82.7328" id="MirrorInterface" rx="3.25" ry="3.25" style="stroke:#181818;stroke-width:0.65;" width="163.8" x="33.15" y="118.3"/><ellipse cx="52.65" cy="139.1" fill="#B4A7E5" rx="14.3" ry="14.3" style="stroke:#181818;stroke-width:1.3;"/><path d="M53.95,135.2 L53.95,143 L56.55,143 L57.1797,143 L57.85,143.8125 L57.85,144.3 L57.85,144.7875 L57.1797,145.6 L56.55,145.6 L48.75,145.6 L48.1203,145.6 L47.45,144.7875 L47.45,144.3 L47.45,143.8125 L48.1203,143 L48.75,143 L51.35,143 L51.35,135.2 L48.75,135.2 L48.1203,135.2 L47.45,134.3875 L47.45,133.9 L47.45,133.4125 L48.1203,132.6 L48.75,132.6 L56.55,132.6 L57.1797,132.6 L57.85,133.4125 L57.85,133.9 L57.85,134.3875 L57.1797,135.2 L56.55,135.2 L53.95,135.2 Z " fill="#000000"/><text fill="#000000" font-family="sans-serif" font-size="18.2" font-style="italic" lengthAdjust="spacing" textLength="122.2" x="70.85" y="145.4096">MirrorInterface</text><line style="stroke:#181818;stroke-width:0.65;" x1="34.45" x2="195.65" y1="159.9" y2="159.9"/><line style="stroke:#181818;stroke-width:0.65;" x1="34.45" x2="195.65" y1="170.3" y2="170.3"/><text fill="#000000" font-family="sans-serif" font-size="18.2" lengthAdjust="spacing" textLength="63.7" x="40.95" y="191.976">reflect()</text></g><!--MD5=[e7bf317fe6ff8d83ad8a7a767069ce21]
class PersonInterface--><g id="elem_PersonInterface"><rect codeLine="14" fill="#F1F1F1" height="82.7328" id="PersonInterface" rx="3.25" ry="3.25" style="stroke:#181818;stroke-width:0.65;" width="172.9" x="28.6" y="417.3"/><ellipse cx="48.1" cy="438.1" fill="#B4A7E5" rx="14.3" ry="14.3" style="stroke:#181818;stroke-width:1.3;"/><path d="M49.4,434.2 L49.4,442 L52,442 L52.6297,442 L53.3,442.8125 L53.3,443.3 L53.3,443.7875 L52.6297,444.6 L52,444.6 L44.2,444.6 L43.5703,444.6 L42.9,443.7875 L42.9,443.3 L42.9,442.8125 L43.5703,442 L44.2,442 L46.8,442 L46.8,434.2 L44.2,434.2 L43.5703,434.2 L42.9,433.3875 L42.9,432.9 L42.9,432.4125 L43.5703,431.6 L44.2,431.6 L52,431.6 L52.6297,431.6 L53.3,432.4125 L53.3,432.9 L53.3,433.3875 L52.6297,434.2 L52,434.2 L49.4,434.2 Z " fill="#000000"/><text fill="#000000" font-family="sans-serif" font-size="18.2" font-style="italic" lengthAdjust="spacing" textLength="131.3" x="66.3" y="444.4096">PersonInterface</text><line style="stroke:#181818;stroke-width:0.65;" x1="29.9" x2="200.2" y1="458.9" y2="458.9"/><line style="stroke:#181818;stroke-width:0.65;" x1="29.9" x2="200.2" y1="469.3" y2="469.3"/><text fill="#000000" font-family="sans-serif" font-size="18.2" lengthAdjust="spacing" textLength="76.7" x="36.4" y="490.976">isSitting()</text></g><!--MD5=[6564de8ed95f3762295210b10a5cec28]
class FoodInterface--><g id="elem_FoodInterface"><rect codeLine="18" fill="#F1F1F1" height="82.7328" id="FoodInterface" rx="3.25" ry="3.25" style="stroke:#181818;stroke-width:0.65;" width="157.3" x="36.4" y="546"/><ellipse cx="55.9" cy="566.8" fill="#B4A7E5" rx="14.3" ry="14.3" style="stroke:#181818;stroke-width:1.3;"/><path d="M57.2,562.9 L57.2,570.7 L59.8,570.7 L60.4297,570.7 L61.1,571.5125 L61.1,572 L61.1,572.4875 L60.4297,573.3 L59.8,573.3 L52,573.3 L51.3703,573.3 L50.7,572.4875 L50.7,572 L50.7,571.5125 L51.3703,570.7 L52,570.7 L54.6,570.7 L54.6,562.9 L52,562.9 L51.3703,562.9 L50.7,562.0875 L50.7,561.6 L50.7,561.1125 L51.3703,560.3 L52,560.3 L59.8,560.3 L60.4297,560.3 L61.1,561.1125 L61.1,561.6 L61.1,562.0875 L60.4297,562.9 L59.8,562.9 L57.2,562.9 Z " fill="#000000"/><text fill="#000000" font-family="sans-serif" font-size="18.2" font-style="italic" lengthAdjust="spacing" textLength="115.7" x="74.1" y="573.1096">FoodInterface</text><line style="stroke:#181818;stroke-width:0.65;" x1="37.7" x2="192.4" y1="587.6" y2="587.6"/><line style="stroke:#181818;stroke-width:0.65;" x1="37.7" x2="192.4" y1="598" y2="598"/><text fill="#000000" font-family="sans-serif" font-size="18.2" lengthAdjust="spacing" textLength="59.8" x="44.2" y="619.676">eated()</text></g><!--MD5=[e6ca9d2a26c27d512edd9e8c867168ed]
class Reflection--><g id="elem_Reflection"><rect codeLine="21" fill="#F1F1F1" height="143.7313" id="Reflection" rx="3.25" ry="3.25" style="stroke:#181818;stroke-width:0.65;" width="123.5" x="53.3" y="675.35"/><ellipse cx="72.8" cy="696.15" fill="#EB937F" rx="14.3" ry="14.3" style="stroke:#181818;stroke-width:1.3;"/><path d="M70.85,697.45 L70.85,700.05 L76.05,700.05 L76.05,698.75 L76.05,698.1203 L76.8625,697.45 L77.35,697.45 L77.8375,697.45 L78.65,698.1203 L78.65,698.75 L78.65,702.65 L68.25,702.65 L67.6203,702.65 L66.95,701.8375 L66.95,701.35 L66.95,700.8625 L67.6203,700.05 L68.25,700.05 L68.25,700.05 L68.25,692.25 L68.25,692.25 L67.6203,692.25 L66.95,691.4375 L66.95,690.95 L66.95,690.4625 L67.6203,689.65 L68.25,689.65 L78.65,689.65 L78.65,693.55 L78.65,694.1797 L77.8375,694.85 L77.35,694.85 L76.8625,694.85 L76.05,694.1797 L76.05,693.55 L76.05,692.25 L70.85,692.25 L70.85,694.85 L72.15,694.85 L72.15,694.2203 L72.15,694.2203 L72.9625,693.55 L73.45,693.55 L73.9375,693.55 L74.75,694.2203 L74.75,694.85 L74.75,697.45 L74.75,698.0797 L73.9375,698.75 L73.9375,698.75 L73.45,698.75 L72.9625,698.75 L72.15,698.0797 L72.15,698.0797 L72.15,697.45 L70.85,697.45 Z " fill="#000000"/><text fill="#000000" font-family="sans-serif" font-size="18.2" lengthAdjust="spacing" textLength="81.9" x="91" y="702.4596">Reflection</text><line style="stroke:#181818;stroke-width:0.65;" x1="54.6" x2="175.5" y1="716.95" y2="716.95"/><text fill="#000000" font-family="sans-serif" font-size="18.2" lengthAdjust="spacing" textLength="91" x="61.1" y="738.626">CROOKED</text><text fill="#000000" font-family="sans-serif" font-size="18.2" lengthAdjust="spacing" textLength="75.4" x="61.1" y="758.9588">NORMAL</text><text fill="#000000" font-family="sans-serif" font-size="18.2" lengthAdjust="spacing" textLength="105.3" x="61.1" y="779.2916">FLATTENED</text><text fill="#000000" font-family="sans-serif" font-size="18.2" lengthAdjust="spacing" textLength="45.5" x="61.1" y="799.6244">WIDE</text><line style="stroke:#181818;stroke-width:0.65;" x1="54.6" x2="175.5" y1="808.6813" y2="808.6813"/></g><!--MD5=[09ce52be0ee7de43c61b6e2d59bf108b]
class Person--><g id="elem_Person"><rect codeLine="30" fill="#F1F1F1" height="123.3984" id="Person" rx="3.25" ry="3.25" style="stroke:#181818;stroke-width:0.65;" width="100.1" x="279.5" y="397.15"/><ellipse cx="299" cy="417.95" fill="#ADD1B2" rx="14.3" ry="14.3" style="stroke:#181818;stroke-width:1.3;"/><path d="M301.6,413.4 Q301.8641,412.75 302.1688,412.425 Q302.4734,412.1 302.8188,412.1 Q303.4281,412.1 303.8141,412.4656 Q304.2,412.8313 304.2,413.6844 L304.2,415.7156 Q304.2,416.5688 303.8344,416.9344 Q303.4688,417.3 302.9,417.3 Q302.3922,417.3 302.0672,417.0766 Q301.7422,416.8531 301.6,416.2641 Q301.5391,415.8578 301.3156,415.6344 Q300.9094,415.2078 300.1781,414.9641 Q299.4469,414.7 298.7156,414.7 Q297.8016,414.7 297.0297,415.0656 Q296.2781,415.4313 295.6891,416.2438 Q295.1,417.0563 295.1,418.1734 L295.1,419.3719 Q295.1,420.7125 296.1969,421.6063 Q297.2938,422.5 299.2438,422.5 Q300.4016,422.5 301.2141,422.2359 Q301.6813,422.0938 302.2094,421.6266 Q302.5547,421.3625 302.7375,421.2813 Q302.9203,421.2 303.1438,421.2 Q303.5703,421.2 303.875,421.5453 Q304.2,421.8703 304.2,422.3375 Q304.2,422.7844 303.7531,423.3125 Q303.1031,424.0844 302.0672,424.5109 Q300.7063,425.1 299.0406,425.1 Q297.0906,425.1 295.5266,424.3281 Q294.2672,423.7188 293.3734,422.3984 Q292.5,421.0781 292.5,419.5141 L292.5,418.0922 Q292.5,416.4672 293.2719,415.0453 Q294.0641,413.6234 295.425,412.8719 Q296.8063,412.1 298.35,412.1 Q299.2844,412.1 300.0969,412.425 Q300.9094,412.75 301.6,413.4 Z " fill="#000000"/><text fill="#000000" font-family="sans-serif" font-size="18.2" lengthAdjust="spacing" textLength="58.5" x="317.2" y="424.2596">Person</text><line style="stroke:#181818;stroke-width:0.65;" x1="280.8" x2="378.3" y1="438.75" y2="438.75"/><line style="stroke:#181818;stroke-width:0.65;" x1="280.8" x2="378.3" y1="449.15" y2="449.15"/><text fill="#000000" font-family="sans-serif" font-size="18.2" lengthAdjust="spacing" textLength="39" x="287.3" y="470.826">eat()</text><text fill="#000000" font-family="sans-serif" font-size="18.2" lengthAdjust="spacing" textLength="63.7" x="287.3" y="491.1588">dance()</text><text fill="#000000" font-family="sans-serif" font-size="18.2" lengthAdjust="spacing" textLength="58.5" x="287.3" y="511.4916">laugh()</text></g><!--MD5=[c0b936abb008b3271898d4186b5531e4]
class Table--><g id="elem_Table"><rect codeLine="35" fill="#F1F1F1" height="62.4" id="Table" rx="3.25" ry="3.25" style="stroke:#181818;stroke-width:0.65;" width="88.4" x="285.35" y="159.9"/><ellipse cx="304.85" cy="180.7" fill="#ADD1B2" rx="14.3" ry="14.3" style="stroke:#181818;stroke-width:1.3;"/><path d="M307.45,176.15 Q307.7141,175.5 308.0188,175.175 Q308.3234,174.85 308.6688,174.85 Q309.2781,174.85 309.6641,175.2156 Q310.05,175.5813 310.05,176.4344 L310.05,178.4656 Q310.05,179.3188 309.6844,179.6844 Q309.3188,180.05 308.75,180.05 Q308.2422,180.05 307.9172,179.8266 Q307.5922,179.6031 307.45,179.0141 Q307.3891,178.6078 307.1656,178.3844 Q306.7594,177.9578 306.0281,177.7141 Q305.2969,177.45 304.5656,177.45 Q303.6516,177.45 302.8797,177.8156 Q302.1281,178.1813 301.5391,178.9938 Q300.95,179.8063 300.95,180.9234 L300.95,182.1219 Q300.95,183.4625 302.0469,184.3563 Q303.1438,185.25 305.0938,185.25 Q306.2516,185.25 307.0641,184.9859 Q307.5313,184.8438 308.0594,184.3766 Q308.4047,184.1125 308.5875,184.0313 Q308.7703,183.95 308.9938,183.95 Q309.4203,183.95 309.725,184.2953 Q310.05,184.6203 310.05,185.0875 Q310.05,185.5344 309.6031,186.0625 Q308.9531,186.8344 307.9172,187.2609 Q306.5563,187.85 304.8906,187.85 Q302.9406,187.85 301.3766,187.0781 Q300.1172,186.4688 299.2234,185.1484 Q298.35,183.8281 298.35,182.2641 L298.35,180.8422 Q298.35,179.2172 299.1219,177.7953 Q299.9141,176.3734 301.275,175.6219 Q302.6563,174.85 304.2,174.85 Q305.1344,174.85 305.9469,175.175 Q306.7594,175.5 307.45,176.15 Z " fill="#000000"/><text fill="#000000" font-family="sans-serif" font-size="18.2" lengthAdjust="spacing" textLength="46.8" x="323.05" y="187.0096">Table</text><line style="stroke:#181818;stroke-width:0.65;" x1="286.65" x2="372.45" y1="201.5" y2="201.5"/><line style="stroke:#181818;stroke-width:0.65;" x1="286.65" x2="372.45" y1="211.9" y2="211.9"/></g><!--MD5=[f1ec3f79efb0fc13b8283411293f9a6c]
class Music--><g id="elem_Music"><rect codeLine="36" fill="#F1F1F1" height="82.7328" id="Music" rx="3.25" ry="3.25" style="stroke:#181818;stroke-width:0.65;" width="88.4" x="285.35" y="267.8"/><ellipse cx="304.85" cy="288.6" fill="#ADD1B2" rx="14.3" ry="14.3" style="stroke:#181818;stroke-width:1.3;"/><path d="M307.45,284.05 Q307.7141,283.4 308.0188,283.075 Q308.3234,282.75 308.6688,282.75 Q309.2781,282.75 309.6641,283.1156 Q310.05,283.4813 310.05,284.3344 L310.05,286.3656 Q310.05,287.2188 309.6844,287.5844 Q309.3188,287.95 308.75,287.95 Q308.2422,287.95 307.9172,287.7266 Q307.5922,287.5031 307.45,286.9141 Q307.3891,286.5078 307.1656,286.2844 Q306.7594,285.8578 306.0281,285.6141 Q305.2969,285.35 304.5656,285.35 Q303.6516,285.35 302.8797,285.7156 Q302.1281,286.0813 301.5391,286.8938 Q300.95,287.7063 300.95,288.8234 L300.95,290.0219 Q300.95,291.3625 302.0469,292.2563 Q303.1438,293.15 305.0938,293.15 Q306.2516,293.15 307.0641,292.8859 Q307.5313,292.7438 308.0594,292.2766 Q308.4047,292.0125 308.5875,291.9313 Q308.7703,291.85 308.9938,291.85 Q309.4203,291.85 309.725,292.1953 Q310.05,292.5203 310.05,292.9875 Q310.05,293.4344 309.6031,293.9625 Q308.9531,294.7344 307.9172,295.1609 Q306.5563,295.75 304.8906,295.75 Q302.9406,295.75 301.3766,294.9781 Q300.1172,294.3688 299.2234,293.0484 Q298.35,291.7281 298.35,290.1641 L298.35,288.7422 Q298.35,287.1172 299.1219,285.6953 Q299.9141,284.2734 301.275,283.5219 Q302.6563,282.75 304.2,282.75 Q305.1344,282.75 305.9469,283.075 Q306.7594,283.4 307.45,284.05 Z " fill="#000000"/><text fill="#000000" font-family="sans-serif" font-size="18.2" lengthAdjust="spacing" textLength="46.8" x="323.05" y="294.9096">Music</text><line style="stroke:#181818;stroke-width:0.65;" x1="286.65" x2="372.45" y1="309.4" y2="309.4"/><line style="stroke:#181818;stroke-width:0.65;" x1="286.65" x2="372.45" y1="319.8" y2="319.8"/><text fill="#000000" font-family="sans-serif" font-size="18.2" lengthAdjust="spacing" textLength="46.8" x="293.15" y="341.476">play()</text></g><!--MD5=[5b4460e97222b45c9cf25eacd4639dbc]
class Food--><g id="elem_Food"><rect codeLine="39" fill="#F1F1F1" height="62.4" id="Food" rx="3.25" ry="3.25" style="stroke:#181818;stroke-width:0.65;" width="84.5" x="287.3" y="566.8"/><ellipse cx="306.8" cy="587.6" fill="#ADD1B2" rx="14.3" ry="14.3" style="stroke:#181818;stroke-width:1.3;"/><path d="M309.4,583.05 Q309.6641,582.4 309.9688,582.075 Q310.2734,581.75 310.6188,581.75 Q311.2281,581.75 311.6141,582.1156 Q312,582.4813 312,583.3344 L312,585.3656 Q312,586.2188 311.6344,586.5844 Q311.2688,586.95 310.7,586.95 Q310.1922,586.95 309.8672,586.7266 Q309.5422,586.5031 309.4,585.9141 Q309.3391,585.5078 309.1156,585.2844 Q308.7094,584.8578 307.9781,584.6141 Q307.2469,584.35 306.5156,584.35 Q305.6016,584.35 304.8297,584.7156 Q304.0781,585.0813 303.4891,585.8938 Q302.9,586.7063 302.9,587.8234 L302.9,589.0219 Q302.9,590.3625 303.9969,591.2563 Q305.0938,592.15 307.0438,592.15 Q308.2016,592.15 309.0141,591.8859 Q309.4813,591.7438 310.0094,591.2766 Q310.3547,591.0125 310.5375,590.9313 Q310.7203,590.85 310.9438,590.85 Q311.3703,590.85 311.675,591.1953 Q312,591.5203 312,591.9875 Q312,592.4344 311.5531,592.9625 Q310.9031,593.7344 309.8672,594.1609 Q308.5063,594.75 306.8406,594.75 Q304.8906,594.75 303.3266,593.9781 Q302.0672,593.3688 301.1734,592.0484 Q300.3,590.7281 300.3,589.1641 L300.3,587.7422 Q300.3,586.1172 301.0719,584.6953 Q301.8641,583.2734 303.225,582.5219 Q304.6063,581.75 306.15,581.75 Q307.0844,581.75 307.8969,582.075 Q308.7094,582.4 309.4,583.05 Z " fill="#000000"/><text fill="#000000" font-family="sans-serif" font-size="18.2" lengthAdjust="spacing" textLength="42.9" x="325" y="593.9096">Food</text><line style="stroke:#181818;stroke-width:0.65;" x1="288.6" x2="370.5" y1="608.4" y2="608.4"/><line style="stroke:#181818;stroke-width:0.65;" x1="288.6" x2="370.5" y1="618.8" y2="618.8"/></g><!--MD5=[a4d8e88a232739e4965e968989e3b411]
class Drink--><g id="elem_Drink"><rect codeLine="40" fill="#F1F1F1" height="62.4" id="Drink" rx="3.25" ry="3.25" style="stroke:#181818;stroke-width:0.65;" width="84.5" x="471.9" y="566.8"/><ellipse cx="491.4" cy="587.6" fill="#ADD1B2" rx="14.3" ry="14.3" style="stroke:#181818;stroke-width:1.3;"/><path d="M494,583.05 Q494.2641,582.4 494.5688,582.075 Q494.8734,581.75 495.2188,581.75 Q495.8281,581.75 496.2141,582.1156 Q496.6,582.4813 496.6,583.3344 L496.6,585.3656 Q496.6,586.2188 496.2344,586.5844 Q495.8688,586.95 495.3,586.95 Q494.7922,586.95 494.4672,586.7266 Q494.1422,586.5031 494,585.9141 Q493.9391,585.5078 493.7156,585.2844 Q493.3094,584.8578 492.5781,584.6141 Q491.8469,584.35 491.1156,584.35 Q490.2016,584.35 489.4297,584.7156 Q488.6781,585.0813 488.0891,585.8938 Q487.5,586.7063 487.5,587.8234 L487.5,589.0219 Q487.5,590.3625 488.5969,591.2563 Q489.6938,592.15 491.6438,592.15 Q492.8016,592.15 493.6141,591.8859 Q494.0813,591.7438 494.6094,591.2766 Q494.9547,591.0125 495.1375,590.9313 Q495.3203,590.85 495.5438,590.85 Q495.9703,590.85 496.275,591.1953 Q496.6,591.5203 496.6,591.9875 Q496.6,592.4344 496.1531,592.9625 Q495.5031,593.7344 494.4672,594.1609 Q493.1063,594.75 491.4406,594.75 Q489.4906,594.75 487.9266,593.9781 Q486.6672,593.3688 485.7734,592.0484 Q484.9,590.7281 484.9,589.1641 L484.9,587.7422 Q484.9,586.1172 485.6719,584.6953 Q486.4641,583.2734 487.825,582.5219 Q489.2063,581.75 490.75,581.75 Q491.6844,581.75 492.4969,582.075 Q493.3094,582.4 494,583.05 Z " fill="#000000"/><text fill="#000000" font-family="sans-serif" font-size="18.2" lengthAdjust="spacing" textLength="42.9" x="509.6" y="593.9096">Drink</text><line style="stroke:#181818;stroke-width:0.65;" x1="473.2" x2="555.1" y1="608.4" y2="608.4"/><line style="stroke:#181818;stroke-width:0.65;" x1="473.2" x2="555.1" y1="618.8" y2="618.8"/></g><!--MD5=[a625a06b29138c32f8edafce0e462b26]
class Mirror--><g id="elem_Mirror"><rect codeLine="41" fill="#F1F1F1" height="62.4" id="Mirror" rx="3.25" ry="3.25" style="stroke:#181818;stroke-width:0.65;" width="89.7" x="284.7" y="52"/><ellipse cx="304.2" cy="72.8" fill="#ADD1B2" rx="14.3" ry="14.3" style="stroke:#181818;stroke-width:1.3;"/><path d="M306.8,68.25 Q307.0641,67.6 307.3688,67.275 Q307.6734,66.95 308.0188,66.95 Q308.6281,66.95 309.0141,67.3156 Q309.4,67.6813 309.4,68.5344 L309.4,70.5656 Q309.4,71.4188 309.0344,71.7844 Q308.6688,72.15 308.1,72.15 Q307.5922,72.15 307.2672,71.9266 Q306.9422,71.7031 306.8,71.1141 Q306.7391,70.7078 306.5156,70.4844 Q306.1094,70.0578 305.3781,69.8141 Q304.6469,69.55 303.9156,69.55 Q303.0016,69.55 302.2297,69.9156 Q301.4781,70.2813 300.8891,71.0938 Q300.3,71.9063 300.3,73.0234 L300.3,74.2219 Q300.3,75.5625 301.3969,76.4563 Q302.4938,77.35 304.4438,77.35 Q305.6016,77.35 306.4141,77.0859 Q306.8813,76.9438 307.4094,76.4766 Q307.7547,76.2125 307.9375,76.1313 Q308.1203,76.05 308.3438,76.05 Q308.7703,76.05 309.075,76.3953 Q309.4,76.7203 309.4,77.1875 Q309.4,77.6344 308.9531,78.1625 Q308.3031,78.9344 307.2672,79.3609 Q305.9063,79.95 304.2406,79.95 Q302.2906,79.95 300.7266,79.1781 Q299.4672,78.5688 298.5734,77.2484 Q297.7,75.9281 297.7,74.3641 L297.7,72.9422 Q297.7,71.3172 298.4719,69.8953 Q299.2641,68.4734 300.625,67.7219 Q302.0063,66.95 303.55,66.95 Q304.4844,66.95 305.2969,67.275 Q306.1094,67.6 306.8,68.25 Z " fill="#000000"/><text fill="#000000" font-family="sans-serif" font-size="18.2" lengthAdjust="spacing" textLength="48.1" x="322.4" y="79.1096">Mirror</text><line style="stroke:#181818;stroke-width:0.65;" x1="286" x2="373.1" y1="93.6" y2="93.6"/><line style="stroke:#181818;stroke-width:0.65;" x1="286" x2="373.1" y1="104" y2="104"/></g><!--MD5=[1aec0852f4be829138c29247caf07a9f]
class Waiter--><g id="elem_Waiter"><rect codeLine="42" fill="#F1F1F1" height="103.0656" id="Waiter" rx="3.25" ry="3.25" style="stroke:#181818;stroke-width:0.65;" width="113.1" x="457.6" y="407.55"/><ellipse cx="485.29" cy="428.35" fill="#ADD1B2" rx="14.3" ry="14.3" style="stroke:#181818;stroke-width:1.3;"/><path d="M487.89,423.8 Q488.1541,423.15 488.4588,422.825 Q488.7634,422.5 489.1088,422.5 Q489.7181,422.5 490.1041,422.8656 Q490.49,423.2313 490.49,424.0844 L490.49,426.1156 Q490.49,426.9688 490.1244,427.3344 Q489.7588,427.7 489.19,427.7 Q488.6822,427.7 488.3572,427.4766 Q488.0322,427.2531 487.89,426.6641 Q487.8291,426.2578 487.6056,426.0344 Q487.1994,425.6078 486.4681,425.3641 Q485.7369,425.1 485.0056,425.1 Q484.0916,425.1 483.3197,425.4656 Q482.5681,425.8313 481.9791,426.6438 Q481.39,427.4563 481.39,428.5734 L481.39,429.7719 Q481.39,431.1125 482.4869,432.0063 Q483.5838,432.9 485.5338,432.9 Q486.6916,432.9 487.5041,432.6359 Q487.9713,432.4938 488.4994,432.0266 Q488.8447,431.7625 489.0275,431.6813 Q489.2103,431.6 489.4338,431.6 Q489.8603,431.6 490.165,431.9453 Q490.49,432.2703 490.49,432.7375 Q490.49,433.1844 490.0431,433.7125 Q489.3931,434.4844 488.3572,434.9109 Q486.9963,435.5 485.3306,435.5 Q483.3806,435.5 481.8166,434.7281 Q480.5572,434.1188 479.6634,432.7984 Q478.79,431.4781 478.79,429.9141 L478.79,428.4922 Q478.79,426.8672 479.5619,425.4453 Q480.3541,424.0234 481.715,423.2719 Q483.0963,422.5 484.64,422.5 Q485.5744,422.5 486.3869,422.825 Q487.1994,423.15 487.89,423.8 Z " fill="#000000"/><text fill="#000000" font-family="sans-serif" font-size="18.2" lengthAdjust="spacing" textLength="53.3" x="505.31" y="434.6596">Waiter</text><line style="stroke:#181818;stroke-width:0.65;" x1="458.9" x2="569.4" y1="449.15" y2="449.15"/><line style="stroke:#181818;stroke-width:0.65;" x1="458.9" x2="569.4" y1="459.55" y2="459.55"/><text fill="#000000" font-family="sans-serif" font-size="18.2" lengthAdjust="spacing" textLength="97.5" x="465.4" y="481.226">bringFood()</text><text fill="#000000" font-family="sans-serif" font-size="18.2" lengthAdjust="spacing" textLength="40.3" x="465.4" y="501.5588">run()</text></g><!--MD5=[b35a7eff4be5588ce22279085f493d60]
reverse link Entity to Person--><g id="link_Entity_Person"><path d="M187.564,359.645 C217.685,380.9 252.031,405.132 279.24,424.333 " fill="none" id="Entity-backto-Person" style="stroke:#181818;stroke-width:1.3;"/><polygon fill="none" points="182.026,366.873,166.036,344.448,192.517,352.001,182.026,366.873" style="stroke:#181818;stroke-width:1.3;"/></g><!--MD5=[b0deea16f44a886aa10ac689b3387eab]
reverse link PersonInterface to Person--><g id="link_PersonInterface_Person"><path d="M228.02,458.9 C245.895,458.9 263.549,458.9 278.941,458.9 " fill="none" id="PersonInterface-backto-Person" style="stroke:#181818;stroke-width:1.3;stroke-dasharray:7.0,7.0;"/><polygon fill="none" points="227.929,468,201.929,458.9,227.929,449.8,227.929,468" style="stroke:#181818;stroke-width:1.3;"/></g><!--MD5=[4484d512804280e25213a9dee271ffc3]
reverse link Entity to Table--><g id="link_Entity_Table"><path d="M188.929,268.879 C221.026,250.952 257.673,230.503 285.324,215.059 " fill="none" id="Entity-backto-Table" style="stroke:#181818;stroke-width:1.3;"/><polygon fill="none" points="193.167,276.939,166.036,281.658,184.301,261.04,193.167,276.939" style="stroke:#181818;stroke-width:1.3;"/></g><!--MD5=[d8f5459302965b45f5aeca02df2386c7]
reverse link Entity to Music--><g id="link_Entity_Music"><path d="M192.231,309.4 C223.522,309.4 258.622,309.4 285.324,309.4 " fill="none" id="Entity-backto-Music" style="stroke:#181818;stroke-width:1.3;"/><polygon fill="none" points="192.036,318.5,166.036,309.4,192.036,300.3,192.036,318.5" style="stroke:#181818;stroke-width:1.3;"/></g><!--MD5=[b4c34480e753a6596001f99e471dc66a]
reverse link Entity to Food--><g id="link_Entity_Food"><path d="M188.071,347.191 C205.4,359.749 222.001,375.349 232.7,393.9 C266.084,451.763 214.084,486.031 248.3,543.4 C257.335,558.558 272.415,570.466 287.053,579.241 " fill="none" id="Entity-backto-Food" style="stroke:#181818;stroke-width:1.3;"/><polygon fill="none" points="182.962,354.718,166.101,332.93,192.868,339.456,182.962,354.718" style="stroke:#181818;stroke-width:1.3;"/></g><!--MD5=[5e107581b7541e15e471738a4c9396bb]
reverse link FoodInterface to Food--><g id="link_FoodInterface_Food"><path d="M220.376,592.709 C243.958,593.866 267.67,595.023 286.845,595.972 " fill="none" id="FoodInterface-backto-Food" style="stroke:#181818;stroke-width:1.3;stroke-dasharray:7.0,7.0;"/><polygon fill="none" points="219.57,601.783,194.051,591.409,220.467,583.596,219.57,601.783" style="stroke:#181818;stroke-width:1.3;"/></g><!--MD5=[c297a30cba902adb914ba7f1bbea1028]
reverse link Food to Drink--><g id="link_Food_Drink"><path d="M398.463,598 C423.059,598 450.099,598 471.718,598 " fill="none" id="Food-backto-Drink" style="stroke:#181818;stroke-width:1.3;"/><polygon fill="none" points="398.151,607.1,372.151,598,398.151,588.9,398.151,607.1" style="stroke:#181818;stroke-width:1.3;"/></g><!--MD5=[7e543a8161f8de4190709cf29b94915c]
reverse link Entity to Mirror--><g id="link_Entity_Mirror"><path d="M187.616,269.984 C204.789,257.296 221.429,241.735 232.7,223.6 C253.461,190.203 226.746,169.39 248.3,136.5 C257.166,122.967 270.79,112.034 284.297,103.675 " fill="none" id="Entity-backto-Mirror" style="stroke:#181818;stroke-width:1.3;"/><polygon fill="none" points="192.582,277.602,165.919,284.505,182.455,262.483,192.582,277.602" style="stroke:#181818;stroke-width:1.3;"/></g><!--MD5=[482619715ff3f765775341e7aeed8537]
reverse link MirrorInterface to Mirror--><g id="link_MirrorInterface_Mirror"><path d="M221.858,121.706 C244.01,113.698 266.188,105.664 284.518,99.034 " fill="none" id="MirrorInterface-backto-Mirror" style="stroke:#181818;stroke-width:1.3;stroke-dasharray:7.0,7.0;"/><polygon fill="none" points="224.614,130.39,197.067,130.689,218.413,113.282,224.614,130.39" style="stroke:#181818;stroke-width:1.3;"/></g><!--MD5=[55ef7ca7a119af48691682c6aec8589f]
reverse link Person to Waiter--><g id="link_Person_Waiter"><path d="M405.795,458.9 C423.098,458.9 441.207,458.9 457.509,458.9 " fill="none" id="Person-backto-Waiter" style="stroke:#181818;stroke-width:1.3;"/><polygon fill="none" points="405.626,468,379.626,458.9,405.626,449.8,405.626,468" style="stroke:#181818;stroke-width:1.3;"/></g><!--MD5=[816560241c36be2f82fc1538fc7d79a5]
@startuml
'https://plantuml.com/sequence-diagram

left to right direction

package utils {
    abstract class Entity{
        name
        getName()
        initiate()
    }
    interface MirrorInterface {
        reflect()
    }
    interface PersonInterface {
        isSitting()

    }
    interface FoodInterface{
        eated()
    }
    enum Reflection{
        CROOKED
        NORMAL
        FLATTENED
        WIDE
    }
}

package core{
    class Person extends Entity implements PersonInterface{
        eat()
        dance()
        laugh()
    }
    class Table extends Entity
    class Music extends Entity {
     play()
    }
    class Food extends Entity implements FoodInterface
    class Drink extends Food
    class Mirror extends Entity implements MirrorInterface
    class Waiter extends Person{
        bringFood()
        run()
    }
}
@enduml

@startuml

left to right direction

package utils {
    abstract class Entity{
        name
        getName()
        initiate()
    }
    interface MirrorInterface {
        reflect()
    }
    interface PersonInterface {
        isSitting()

    }
    interface FoodInterface{
        eated()
    }
    enum Reflection{
        CROOKED
        NORMAL
        FLATTENED
        WIDE
    }
}

package core{
    class Person extends Entity implements PersonInterface{
        eat()
        dance()
        laugh()
    }
    class Table extends Entity
    class Music extends Entity {
     play()
    }
    class Food extends Entity implements FoodInterface
    class Drink extends Food
    class Mirror extends Entity implements MirrorInterface
    class Waiter extends Person{
        bringFood()
        run()
    }
}
@enduml

PlantUML version 1.2022.12(Sun Oct 23 21:12:26 MSK 2022)
(GPL source distribution)
Java Runtime: OpenJDK Runtime Environment
JVM: OpenJDK 64-Bit Server VM
Default Encoding: Cp1251
Language: ru
Country: RU
--></g></svg>