<?xml version="1.0" encoding="UTF-8" standalone="no"?><svg xmlns="http://www.w3.org/2000/svg" xmlns:xlink="http://www.w3.org/1999/xlink" contentStyleType="text/css" height="544px" preserveAspectRatio="none" style="width:1193px;height:544px;background:#FFFFFF;" version="1.1" viewBox="0 0 1193 544" width="1193px" zoomAndPan="magnify"><defs/><g><!--MD5=[f95cbbc0fbf792079c0f8eb3e6d5247c]
class FoodContainer--><g id="elem_FoodContainer"><rect codeLine="6" fill="#F1F1F1" height="79.2813" id="FoodContainer" rx="2.5" ry="2.5" style="stroke:#181818;stroke-width:0.5;" width="181" x="491.5" y="23"/><ellipse cx="530.8" cy="39" fill="#B4A7E5" rx="11" ry="11" style="stroke:#181818;stroke-width:1.0;"/><path d="M531.8,36 L531.8,42 L533.8,42 L534.2844,42 L534.8,42.625 L534.8,43 L534.8,43.375 L534.2844,44 L533.8,44 L527.8,44 L527.3156,44 L526.8,43.375 L526.8,43 L526.8,42.625 L527.3156,42 L527.8,42 L529.8,42 L529.8,36 L527.8,36 L527.3156,36 L526.8,35.375 L526.8,35 L526.8,34.625 L527.3156,34 L527.8,34 L533.8,34 L534.2844,34 L534.8,34.625 L534.8,35 L534.8,35.375 L534.2844,36 L533.8,36 L531.8,36 Z " fill="#000000"/><text fill="#000000" font-family="sans-serif" font-size="14" font-style="italic" lengthAdjust="spacing" textLength="95" x="550.2" y="43.8535">FoodContainer</text><line style="stroke:#181818;stroke-width:0.5;" x1="492.5" x2="671.5" y1="55" y2="55"/><line style="stroke:#181818;stroke-width:0.5;" x1="492.5" x2="671.5" y1="63" y2="63"/><ellipse cx="502.5" cy="76.3203" fill="#84BE84" rx="3" ry="3" style="stroke:#038048;stroke-width:1.0;"/><text fill="#000000" font-family="sans-serif" font-size="14" lengthAdjust="spacing" textLength="155" x="511.5" y="79.6738">putFood(food : Eatable )</text><ellipse cx="502.5" cy="91.9609" fill="#84BE84" rx="3" ry="3" style="stroke:#038048;stroke-width:1.0;"/><text fill="#000000" font-family="sans-serif" font-size="14" lengthAdjust="spacing" textLength="150" x="511.5" y="95.3145">removeFood() : Eatable</text></g><!--MD5=[3eff9d4279c887ef9286477750bdaaff]
class Character--><g id="elem_Character"><rect codeLine="10" fill="#F1F1F1" height="110.5625" id="Character" rx="2.5" ry="2.5" style="stroke:#181818;stroke-width:0.5;" width="141" x="610.5" y="178"/><ellipse cx="646.2" cy="194" fill="#A9DCDF" rx="11" ry="11" style="stroke:#181818;stroke-width:1.0;"/><path d="M647.95,195.5 L644.6531,195.5 L644.2156,196.5 L644.2156,196.5 L644.6844,196.5 L645.2,197.125 L645.2,197.5 L645.2,197.875 L644.6844,198.5 L644.2156,198.5 L642.325,198.5 L641.7156,198.5 L641.2,197.875 L641.2,197.5 L641.2,197.125 L641.7156,196.5 L642.325,196.5 L644.6375,190.5 L643.7625,190.5 L642.7156,190.5 L642.2,189.875 L642.2,189.5 L642.2,189.125 L642.7156,188.5 L643.7625,188.5 L647.4344,188.5 L650.1219,196.5 L650.6844,196.5 L650.6844,196.5 L651.2,197.125 L651.2,197.5 L651.2,197.875 L650.6844,198.5 L650.1219,198.5 L648.2313,198.5 L647.7156,198.5 L647.2,197.875 L647.2,197.5 L647.2,197.125 L647.7156,196.5 L648.2313,196.5 L648.2313,196.5 L647.95,195.5 Z M647.4031,193.5 L646.2,189.9219 L645.1688,193.5 L647.4031,193.5 Z " fill="#000000"/><text fill="#000000" font-family="sans-serif" font-size="14" font-style="italic" lengthAdjust="spacing" textLength="63" x="664.8" y="198.8535">Character</text><line style="stroke:#181818;stroke-width:0.5;" x1="611.5" x2="750.5" y1="210" y2="210"/><rect fill="none" height="6" style="stroke:#C82930;stroke-width:1.0;" width="6" x="618.5" y="220.3203"/><text fill="#000000" font-family="sans-serif" font-size="14" lengthAdjust="spacing" textLength="84" x="630.5" y="226.6738">name : String</text><rect fill="none" height="6" style="stroke:#C82930;stroke-width:1.0;" width="6" x="618.5" y="235.9609"/><text fill="#000000" font-family="sans-serif" font-size="14" lengthAdjust="spacing" textLength="51" x="630.5" y="242.3145">age : int</text><line style="stroke:#181818;stroke-width:0.5;" x1="611.5" x2="750.5" y1="249.2813" y2="249.2813"/><ellipse cx="621.5" cy="262.6016" fill="#84BE84" rx="3" ry="3" style="stroke:#038048;stroke-width:1.0;"/><text fill="#000000" font-family="sans-serif" font-size="14" lengthAdjust="spacing" textLength="115" x="630.5" y="265.9551">getName() : String</text><ellipse cx="621.5" cy="278.2422" fill="#84BE84" rx="3" ry="3" style="stroke:#038048;stroke-width:1.0;"/><text fill="#000000" font-family="sans-serif" font-size="14" lengthAdjust="spacing" textLength="82" x="630.5" y="281.5957">getAge() : int</text></g><!--MD5=[939598fe90a965a637042066a6c7a538]
class Eatable--><g id="elem_Eatable"><rect codeLine="16" fill="#F1F1F1" height="63.6406" id="Eatable" rx="2.5" ry="2.5" style="stroke:#181818;stroke-width:0.5;" width="80" x="944" y="201.5"/><ellipse cx="959" cy="217.5" fill="#B4A7E5" rx="11" ry="11" style="stroke:#181818;stroke-width:1.0;"/><path d="M960,214.5 L960,220.5 L962,220.5 L962.4844,220.5 L963,221.125 L963,221.5 L963,221.875 L962.4844,222.5 L962,222.5 L956,222.5 L955.5156,222.5 L955,221.875 L955,221.5 L955,221.125 L955.5156,220.5 L956,220.5 L958,220.5 L958,214.5 L956,214.5 L955.5156,214.5 L955,213.875 L955,213.5 L955,213.125 L955.5156,212.5 L956,212.5 L962,212.5 L962.4844,212.5 L963,213.125 L963,213.5 L963,213.875 L962.4844,214.5 L962,214.5 L960,214.5 Z " fill="#000000"/><text fill="#000000" font-family="sans-serif" font-size="14" font-style="italic" lengthAdjust="spacing" textLength="48" x="973" y="222.3535">Eatable</text><line style="stroke:#181818;stroke-width:0.5;" x1="945" x2="1023" y1="233.5" y2="233.5"/><line style="stroke:#181818;stroke-width:0.5;" x1="945" x2="1023" y1="241.5" y2="241.5"/><ellipse cx="955" cy="254.8203" fill="#84BE84" rx="3" ry="3" style="stroke:#038048;stroke-width:1.0;"/><text fill="#000000" font-family="sans-serif" font-size="14" lengthAdjust="spacing" textLength="46" x="964" y="258.1738">eated()</text></g><!--MD5=[63015858f037f00b190ca064618431ce]
class ReflectionType--><g id="elem_ReflectionType"><rect codeLine="19" fill="#F1F1F1" height="110.5625" id="ReflectionType" rx="2.5" ry="2.5" style="stroke:#181818;stroke-width:0.5;" width="127" x="36.5" y="7"/><ellipse cx="51.5" cy="23" fill="#EB937F" rx="11" ry="11" style="stroke:#181818;stroke-width:1.0;"/><path d="M50,24 L50,26 L54,26 L54,25 L54,24.5156 L54.625,24 L55,24 L55.375,24 L56,24.5156 L56,25 L56,28 L48,28 L47.5156,28 L47,27.375 L47,27 L47,26.625 L47.5156,26 L48,26 L48,26 L48,20 L48,20 L47.5156,20 L47,19.375 L47,19 L47,18.625 L47.5156,18 L48,18 L56,18 L56,21 L56,21.4844 L55.375,22 L55,22 L54.625,22 L54,21.4844 L54,21 L54,20 L50,20 L50,22 L51,22 L51,21.5156 L51,21.5156 L51.625,21 L52,21 L52.375,21 L53,21.5156 L53,22 L53,24 L53,24.4844 L52.375,25 L52.375,25 L52,25 L51.625,25 L51,24.4844 L51,24.4844 L51,24 L50,24 Z " fill="#000000"/><text fill="#000000" font-family="sans-serif" font-size="14" lengthAdjust="spacing" textLength="95" x="65.5" y="27.8535">ReflectionType</text><line style="stroke:#181818;stroke-width:0.5;" x1="37.5" x2="162.5" y1="39" y2="39"/><text fill="#000000" font-family="sans-serif" font-size="14" lengthAdjust="spacing" textLength="70" x="42.5" y="55.6738">CROOKED</text><text fill="#000000" font-family="sans-serif" font-size="14" lengthAdjust="spacing" textLength="58" x="42.5" y="71.3145">NORMAL</text><text fill="#000000" font-family="sans-serif" font-size="14" lengthAdjust="spacing" textLength="81" x="42.5" y="86.9551">FLATTENED</text><text fill="#000000" font-family="sans-serif" font-size="14" lengthAdjust="spacing" textLength="35" x="42.5" y="102.5957">WIDE</text><line style="stroke:#181818;stroke-width:0.5;" x1="37.5" x2="162.5" y1="109.5625" y2="109.5625"/></g><!--MD5=[c0b936abb008b3271898d4186b5531e4]
class Table--><g id="elem_Table"><rect codeLine="28" fill="#F1F1F1" height="79.2813" id="Table" rx="2.5" ry="2.5" style="stroke:#181818;stroke-width:0.5;" width="181" x="226.5" y="194"/><ellipse cx="294.75" cy="210" fill="#ADD1B2" rx="11" ry="11" style="stroke:#181818;stroke-width:1.0;"/><path d="M296.75,206.5 Q296.9531,206 297.1875,205.75 Q297.4219,205.5 297.6875,205.5 Q298.1563,205.5 298.4531,205.7813 Q298.75,206.0625 298.75,206.7188 L298.75,208.2813 Q298.75,208.9375 298.4688,209.2188 Q298.1875,209.5 297.75,209.5 Q297.3594,209.5 297.1094,209.3281 Q296.8594,209.1563 296.75,208.7031 Q296.7031,208.3906 296.5313,208.2188 Q296.2188,207.8906 295.6563,207.7031 Q295.0938,207.5 294.5313,207.5 Q293.8281,207.5 293.2344,207.7813 Q292.6563,208.0625 292.2031,208.6875 Q291.75,209.3125 291.75,210.1719 L291.75,211.0938 Q291.75,212.125 292.5938,212.8125 Q293.4375,213.5 294.9375,213.5 Q295.8281,213.5 296.4531,213.2969 Q296.8125,213.1875 297.2188,212.8281 Q297.4844,212.625 297.625,212.5625 Q297.7656,212.5 297.9375,212.5 Q298.2656,212.5 298.5,212.7656 Q298.75,213.0156 298.75,213.375 Q298.75,213.7188 298.4063,214.125 Q297.9063,214.7188 297.1094,215.0469 Q296.0625,215.5 294.7813,215.5 Q293.2813,215.5 292.0781,214.9063 Q291.1094,214.4375 290.4219,213.4219 Q289.75,212.4063 289.75,211.2031 L289.75,210.1094 Q289.75,208.8594 290.3438,207.7656 Q290.9531,206.6719 292,206.0938 Q293.0625,205.5 294.25,205.5 Q294.9688,205.5 295.5938,205.75 Q296.2188,206 296.75,206.5 Z " fill="#000000"/><text fill="#000000" font-family="sans-serif" font-size="14" lengthAdjust="spacing" textLength="36" x="315.25" y="214.8535">Table</text><line style="stroke:#181818;stroke-width:0.5;" x1="227.5" x2="406.5" y1="226" y2="226"/><rect fill="none" height="6" style="stroke:#C82930;stroke-width:1.0;" width="6" x="234.5" y="236.3203"/><text fill="#000000" font-family="sans-serif" font-size="14" lengthAdjust="spacing" textLength="96" x="246.5" y="242.6738">food[] : Eatable</text><line style="stroke:#181818;stroke-width:0.5;" x1="227.5" x2="406.5" y1="249.6406" y2="249.6406"/><ellipse cx="237.5" cy="262.9609" fill="#84BE84" rx="3" ry="3" style="stroke:#038048;stroke-width:1.0;"/><text fill="#000000" font-family="sans-serif" font-size="14" lengthAdjust="spacing" textLength="155" x="246.5" y="266.3145">eatFood(food : Eatable )</text></g><!--MD5=[2f4e13970623946f7b951b992675ea8d]
class Tray--><g id="elem_Tray"><rect codeLine="32" fill="#F1F1F1" height="63.6406" id="Tray" rx="2.5" ry="2.5" style="stroke:#181818;stroke-width:0.5;" width="122" x="787" y="201.5"/><ellipse cx="829.45" cy="217.5" fill="#ADD1B2" rx="11" ry="11" style="stroke:#181818;stroke-width:1.0;"/><path d="M831.45,214 Q831.6531,213.5 831.8875,213.25 Q832.1219,213 832.3875,213 Q832.8563,213 833.1531,213.2813 Q833.45,213.5625 833.45,214.2188 L833.45,215.7813 Q833.45,216.4375 833.1688,216.7188 Q832.8875,217 832.45,217 Q832.0594,217 831.8094,216.8281 Q831.5594,216.6563 831.45,216.2031 Q831.4031,215.8906 831.2313,215.7188 Q830.9188,215.3906 830.3563,215.2031 Q829.7938,215 829.2313,215 Q828.5281,215 827.9344,215.2813 Q827.3563,215.5625 826.9031,216.1875 Q826.45,216.8125 826.45,217.6719 L826.45,218.5938 Q826.45,219.625 827.2938,220.3125 Q828.1375,221 829.6375,221 Q830.5281,221 831.1531,220.7969 Q831.5125,220.6875 831.9188,220.3281 Q832.1844,220.125 832.325,220.0625 Q832.4656,220 832.6375,220 Q832.9656,220 833.2,220.2656 Q833.45,220.5156 833.45,220.875 Q833.45,221.2188 833.1063,221.625 Q832.6063,222.2188 831.8094,222.5469 Q830.7625,223 829.4813,223 Q827.9813,223 826.7781,222.4063 Q825.8094,221.9375 825.1219,220.9219 Q824.45,219.9063 824.45,218.7031 L824.45,217.6094 Q824.45,216.3594 825.0438,215.2656 Q825.6531,214.1719 826.7,213.5938 Q827.7625,213 828.95,213 Q829.6688,213 830.2938,213.25 Q830.9188,213.5 831.45,214 Z " fill="#000000"/><text fill="#000000" font-family="sans-serif" font-size="14" lengthAdjust="spacing" textLength="29" x="849.55" y="222.3535">Tray</text><line style="stroke:#181818;stroke-width:0.5;" x1="788" x2="908" y1="233.5" y2="233.5"/><rect fill="none" height="6" style="stroke:#C82930;stroke-width:1.0;" width="6" x="795" y="243.8203"/><text fill="#000000" font-family="sans-serif" font-size="14" lengthAdjust="spacing" textLength="96" x="807" y="250.1738">food[] : Eatable</text><line style="stroke:#181818;stroke-width:0.5;" x1="788" x2="908" y1="257.1406" y2="257.1406"/></g><!--MD5=[f1ec3f79efb0fc13b8283411293f9a6c]
class Music--><g id="elem_Music"><rect codeLine="35" fill="#F1F1F1" height="94.9219" id="Music" rx="2.5" ry="2.5" style="stroke:#181818;stroke-width:0.5;" width="132" x="443" y="186"/><ellipse cx="486.8" cy="202" fill="#ADD1B2" rx="11" ry="11" style="stroke:#181818;stroke-width:1.0;"/><path d="M488.8,198.5 Q489.0031,198 489.2375,197.75 Q489.4719,197.5 489.7375,197.5 Q490.2063,197.5 490.5031,197.7813 Q490.8,198.0625 490.8,198.7188 L490.8,200.2813 Q490.8,200.9375 490.5188,201.2188 Q490.2375,201.5 489.8,201.5 Q489.4094,201.5 489.1594,201.3281 Q488.9094,201.1563 488.8,200.7031 Q488.7531,200.3906 488.5813,200.2188 Q488.2688,199.8906 487.7063,199.7031 Q487.1438,199.5 486.5813,199.5 Q485.8781,199.5 485.2844,199.7813 Q484.7063,200.0625 484.2531,200.6875 Q483.8,201.3125 483.8,202.1719 L483.8,203.0938 Q483.8,204.125 484.6438,204.8125 Q485.4875,205.5 486.9875,205.5 Q487.8781,205.5 488.5031,205.2969 Q488.8625,205.1875 489.2688,204.8281 Q489.5344,204.625 489.675,204.5625 Q489.8156,204.5 489.9875,204.5 Q490.3156,204.5 490.55,204.7656 Q490.8,205.0156 490.8,205.375 Q490.8,205.7188 490.4563,206.125 Q489.9563,206.7188 489.1594,207.0469 Q488.1125,207.5 486.8313,207.5 Q485.3313,207.5 484.1281,206.9063 Q483.1594,206.4375 482.4719,205.4219 Q481.8,204.4063 481.8,203.2031 L481.8,202.1094 Q481.8,200.8594 482.3938,199.7656 Q483.0031,198.6719 484.05,198.0938 Q485.1125,197.5 486.3,197.5 Q487.0188,197.5 487.6438,197.75 Q488.2688,198 488.8,198.5 Z " fill="#000000"/><text fill="#000000" font-family="sans-serif" font-size="14" lengthAdjust="spacing" textLength="36" x="507.2" y="206.8535">Music</text><line style="stroke:#181818;stroke-width:0.5;" x1="444" x2="574" y1="218" y2="218"/><rect fill="none" height="6" style="stroke:#C82930;stroke-width:1.0;" width="6" x="451" y="228.3203"/><text fill="#000000" font-family="sans-serif" font-size="14" lengthAdjust="spacing" textLength="71" x="463" y="234.6738">title : String</text><line style="stroke:#181818;stroke-width:0.5;" x1="444" x2="574" y1="241.6406" y2="241.6406"/><ellipse cx="454" cy="254.9609" fill="#84BE84" rx="3" ry="3" style="stroke:#038048;stroke-width:1.0;"/><text fill="#000000" font-family="sans-serif" font-size="14" lengthAdjust="spacing" textLength="36" x="463" y="258.3145">play()</text><ellipse cx="454" cy="270.6016" fill="#84BE84" rx="3" ry="3" style="stroke:#038048;stroke-width:1.0;"/><text fill="#000000" font-family="sans-serif" font-size="14" lengthAdjust="spacing" textLength="106" x="463" y="273.9551">getTitle() : String</text></g><!--MD5=[5b4460e97222b45c9cf25eacd4639dbc]
class Food--><g id="elem_Food"><rect codeLine="40" fill="#F1F1F1" height="79.2813" id="Food" rx="2.5" ry="2.5" style="stroke:#181818;stroke-width:0.5;" width="113" x="927.5" y="404"/><ellipse cx="964.1" cy="420" fill="#ADD1B2" rx="11" ry="11" style="stroke:#181818;stroke-width:1.0;"/><path d="M966.1,416.5 Q966.3031,416 966.5375,415.75 Q966.7719,415.5 967.0375,415.5 Q967.5063,415.5 967.8031,415.7813 Q968.1,416.0625 968.1,416.7188 L968.1,418.2813 Q968.1,418.9375 967.8188,419.2188 Q967.5375,419.5 967.1,419.5 Q966.7094,419.5 966.4594,419.3281 Q966.2094,419.1563 966.1,418.7031 Q966.0531,418.3906 965.8813,418.2188 Q965.5688,417.8906 965.0063,417.7031 Q964.4438,417.5 963.8813,417.5 Q963.1781,417.5 962.5844,417.7813 Q962.0063,418.0625 961.5531,418.6875 Q961.1,419.3125 961.1,420.1719 L961.1,421.0938 Q961.1,422.125 961.9438,422.8125 Q962.7875,423.5 964.2875,423.5 Q965.1781,423.5 965.8031,423.2969 Q966.1625,423.1875 966.5688,422.8281 Q966.8344,422.625 966.975,422.5625 Q967.1156,422.5 967.2875,422.5 Q967.6156,422.5 967.85,422.7656 Q968.1,423.0156 968.1,423.375 Q968.1,423.7188 967.7563,424.125 Q967.2563,424.7188 966.4594,425.0469 Q965.4125,425.5 964.1313,425.5 Q962.6313,425.5 961.4281,424.9063 Q960.4594,424.4375 959.7719,423.4219 Q959.1,422.4063 959.1,421.2031 L959.1,420.1094 Q959.1,418.8594 959.6938,417.7656 Q960.3031,416.6719 961.35,416.0938 Q962.4125,415.5 963.6,415.5 Q964.3188,415.5 964.9438,415.75 Q965.5688,416 966.1,416.5 Z " fill="#000000"/><text fill="#000000" font-family="sans-serif" font-size="14" lengthAdjust="spacing" textLength="33" x="982.9" y="424.8535">Food</text><line style="stroke:#181818;stroke-width:0.5;" x1="928.5" x2="1039.5" y1="436" y2="436"/><rect fill="none" height="6" style="stroke:#C82930;stroke-width:1.0;" width="6" x="935.5" y="446.3203"/><text fill="#000000" font-family="sans-serif" font-size="14" lengthAdjust="spacing" textLength="87" x="947.5" y="452.6738">isSweet : bool</text><rect fill="none" height="6" style="stroke:#C82930;stroke-width:1.0;" width="6" x="935.5" y="461.9609"/><text fill="#000000" font-family="sans-serif" font-size="14" lengthAdjust="spacing" textLength="84" x="947.5" y="468.3145">name : String</text><line style="stroke:#181818;stroke-width:0.5;" x1="928.5" x2="1039.5" y1="475.2813" y2="475.2813"/></g><!--MD5=[a4d8e88a232739e4965e968989e3b411]
class Drink--><g id="elem_Drink"><rect codeLine="44" fill="#F1F1F1" height="79.2813" id="Drink" rx="2.5" ry="2.5" style="stroke:#181818;stroke-width:0.5;" width="110" x="1076" y="404"/><ellipse cx="1111.25" cy="420" fill="#ADD1B2" rx="11" ry="11" style="stroke:#181818;stroke-width:1.0;"/><path d="M1113.25,416.5 Q1113.4531,416 1113.6875,415.75 Q1113.9219,415.5 1114.1875,415.5 Q1114.6563,415.5 1114.9531,415.7813 Q1115.25,416.0625 1115.25,416.7188 L1115.25,418.2813 Q1115.25,418.9375 1114.9688,419.2188 Q1114.6875,419.5 1114.25,419.5 Q1113.8594,419.5 1113.6094,419.3281 Q1113.3594,419.1563 1113.25,418.7031 Q1113.2031,418.3906 1113.0313,418.2188 Q1112.7188,417.8906 1112.1563,417.7031 Q1111.5938,417.5 1111.0313,417.5 Q1110.3281,417.5 1109.7344,417.7813 Q1109.1563,418.0625 1108.7031,418.6875 Q1108.25,419.3125 1108.25,420.1719 L1108.25,421.0938 Q1108.25,422.125 1109.0938,422.8125 Q1109.9375,423.5 1111.4375,423.5 Q1112.3281,423.5 1112.9531,423.2969 Q1113.3125,423.1875 1113.7188,422.8281 Q1113.9844,422.625 1114.125,422.5625 Q1114.2656,422.5 1114.4375,422.5 Q1114.7656,422.5 1115,422.7656 Q1115.25,423.0156 1115.25,423.375 Q1115.25,423.7188 1114.9063,424.125 Q1114.4063,424.7188 1113.6094,425.0469 Q1112.5625,425.5 1111.2813,425.5 Q1109.7813,425.5 1108.5781,424.9063 Q1107.6094,424.4375 1106.9219,423.4219 Q1106.25,422.4063 1106.25,421.2031 L1106.25,420.1094 Q1106.25,418.8594 1106.8438,417.7656 Q1107.4531,416.6719 1108.5,416.0938 Q1109.5625,415.5 1110.75,415.5 Q1111.4688,415.5 1112.0938,415.75 Q1112.7188,416 1113.25,416.5 Z " fill="#000000"/><text fill="#000000" font-family="sans-serif" font-size="14" lengthAdjust="spacing" textLength="33" x="1129.75" y="424.8535">Drink</text><line style="stroke:#181818;stroke-width:0.5;" x1="1077" x2="1185" y1="436" y2="436"/><rect fill="none" height="6" style="stroke:#C82930;stroke-width:1.0;" width="6" x="1084" y="446.3203"/><text fill="#000000" font-family="sans-serif" font-size="14" lengthAdjust="spacing" textLength="84" x="1096" y="452.6738">name : String</text><rect fill="none" height="6" style="stroke:#C82930;stroke-width:1.0;" width="6" x="1084" y="461.9609"/><text fill="#000000" font-family="sans-serif" font-size="14" lengthAdjust="spacing" textLength="76" x="1096" y="468.3145">calories : int</text><line style="stroke:#181818;stroke-width:0.5;" x1="1077" x2="1185" y1="475.2813" y2="475.2813"/></g><!--MD5=[a625a06b29138c32f8edafce0e462b26]
class Mirror--><g id="elem_Mirror"><rect codeLine="48" fill="#F1F1F1" height="63.6406" id="Mirror" rx="2.5" ry="2.5" style="stroke:#181818;stroke-width:0.5;" width="182" x="9" y="201.5"/><ellipse cx="77.25" cy="217.5" fill="#ADD1B2" rx="11" ry="11" style="stroke:#181818;stroke-width:1.0;"/><path d="M79.25,214 Q79.4531,213.5 79.6875,213.25 Q79.9219,213 80.1875,213 Q80.6563,213 80.9531,213.2813 Q81.25,213.5625 81.25,214.2188 L81.25,215.7813 Q81.25,216.4375 80.9688,216.7188 Q80.6875,217 80.25,217 Q79.8594,217 79.6094,216.8281 Q79.3594,216.6563 79.25,216.2031 Q79.2031,215.8906 79.0313,215.7188 Q78.7188,215.3906 78.1563,215.2031 Q77.5938,215 77.0313,215 Q76.3281,215 75.7344,215.2813 Q75.1563,215.5625 74.7031,216.1875 Q74.25,216.8125 74.25,217.6719 L74.25,218.5938 Q74.25,219.625 75.0938,220.3125 Q75.9375,221 77.4375,221 Q78.3281,221 78.9531,220.7969 Q79.3125,220.6875 79.7188,220.3281 Q79.9844,220.125 80.125,220.0625 Q80.2656,220 80.4375,220 Q80.7656,220 81,220.2656 Q81.25,220.5156 81.25,220.875 Q81.25,221.2188 80.9063,221.625 Q80.4063,222.2188 79.6094,222.5469 Q78.5625,223 77.2813,223 Q75.7813,223 74.5781,222.4063 Q73.6094,221.9375 72.9219,220.9219 Q72.25,219.9063 72.25,218.7031 L72.25,217.6094 Q72.25,216.3594 72.8438,215.2656 Q73.4531,214.1719 74.5,213.5938 Q75.5625,213 76.75,213 Q77.4688,213 78.0938,213.25 Q78.7188,213.5 79.25,214 Z " fill="#000000"/><text fill="#000000" font-family="sans-serif" font-size="14" lengthAdjust="spacing" textLength="37" x="97.75" y="222.3535">Mirror</text><line style="stroke:#181818;stroke-width:0.5;" x1="10" x2="190" y1="233.5" y2="233.5"/><line style="stroke:#181818;stroke-width:0.5;" x1="10" x2="190" y1="241.5" y2="241.5"/><polygon fill="#FFFF44" points="20,249.8203,24,253.8203,20,257.8203,16,253.8203" style="stroke:#B38D22;stroke-width:1.0;"/><text fill="#000000" font-family="sans-serif" font-size="14" lengthAdjust="spacing" textLength="156" x="29" y="258.1738">reflect() : ReflectionType</text></g><!--MD5=[a71e97061c4d89845d8d85164c9618fe]
class Shorty--><g id="elem_Shorty"><rect codeLine="51" fill="#F1F1F1" height="188.7656" id="Shorty" rx="2.5" ry="2.5" style="stroke:#181818;stroke-width:0.5;" width="159" x="429.5" y="349"/><ellipse cx="484.25" cy="365" fill="#ADD1B2" rx="11" ry="11" style="stroke:#181818;stroke-width:1.0;"/><path d="M486.25,361.5 Q486.4531,361 486.6875,360.75 Q486.9219,360.5 487.1875,360.5 Q487.6563,360.5 487.9531,360.7813 Q488.25,361.0625 488.25,361.7188 L488.25,363.2813 Q488.25,363.9375 487.9688,364.2188 Q487.6875,364.5 487.25,364.5 Q486.8594,364.5 486.6094,364.3281 Q486.3594,364.1563 486.25,363.7031 Q486.2031,363.3906 486.0313,363.2188 Q485.7188,362.8906 485.1563,362.7031 Q484.5938,362.5 484.0313,362.5 Q483.3281,362.5 482.7344,362.7813 Q482.1563,363.0625 481.7031,363.6875 Q481.25,364.3125 481.25,365.1719 L481.25,366.0938 Q481.25,367.125 482.0938,367.8125 Q482.9375,368.5 484.4375,368.5 Q485.3281,368.5 485.9531,368.2969 Q486.3125,368.1875 486.7188,367.8281 Q486.9844,367.625 487.125,367.5625 Q487.2656,367.5 487.4375,367.5 Q487.7656,367.5 488,367.7656 Q488.25,368.0156 488.25,368.375 Q488.25,368.7188 487.9063,369.125 Q487.4063,369.7188 486.6094,370.0469 Q485.5625,370.5 484.2813,370.5 Q482.7813,370.5 481.5781,369.9063 Q480.6094,369.4375 479.9219,368.4219 Q479.25,367.4063 479.25,366.2031 L479.25,365.1094 Q479.25,363.8594 479.8438,362.7656 Q480.4531,361.6719 481.5,361.0938 Q482.5625,360.5 483.75,360.5 Q484.4688,360.5 485.0938,360.75 Q485.7188,361 486.25,361.5 Z " fill="#000000"/><text fill="#000000" font-family="sans-serif" font-size="14" lengthAdjust="spacing" textLength="41" x="504.75" y="369.8535">Shorty</text><line style="stroke:#181818;stroke-width:0.5;" x1="430.5" x2="587.5" y1="381" y2="381"/><rect fill="none" height="6" style="stroke:#C82930;stroke-width:1.0;" width="6" x="437.5" y="391.3203"/><text fill="#000000" font-family="sans-serif" font-size="14" lengthAdjust="spacing" textLength="76" x="449.5" y="397.6738">sitting : bool</text><rect fill="none" height="6" style="stroke:#C82930;stroke-width:1.0;" width="6" x="437.5" y="406.9609"/><text fill="#000000" font-family="sans-serif" font-size="14" lengthAdjust="spacing" textLength="78" x="449.5" y="413.3145">eating : bool</text><rect fill="none" height="6" style="stroke:#C82930;stroke-width:1.0;" width="6" x="437.5" y="422.6016"/><text fill="#000000" font-family="sans-serif" font-size="14" lengthAdjust="spacing" textLength="89" x="449.5" y="428.9551">dancing : bool</text><rect fill="none" height="6" style="stroke:#C82930;stroke-width:1.0;" width="6" x="437.5" y="438.2422"/><text fill="#000000" font-family="sans-serif" font-size="14" lengthAdjust="spacing" textLength="84" x="449.5" y="444.5957">looking : bool</text><line style="stroke:#181818;stroke-width:0.5;" x1="430.5" x2="587.5" y1="451.5625" y2="451.5625"/><ellipse cx="440.5" cy="464.8828" fill="#84BE84" rx="3" ry="3" style="stroke:#038048;stroke-width:1.0;"/><text fill="#000000" font-family="sans-serif" font-size="14" lengthAdjust="spacing" textLength="118" x="449.5" y="468.2363">eat(food : Eatable)</text><ellipse cx="440.5" cy="480.5234" fill="#84BE84" rx="3" ry="3" style="stroke:#038048;stroke-width:1.0;"/><text fill="#000000" font-family="sans-serif" font-size="14" lengthAdjust="spacing" textLength="118" x="449.5" y="483.877">look(mirror: Mirror)</text><ellipse cx="440.5" cy="496.1641" fill="#84BE84" rx="3" ry="3" style="stroke:#038048;stroke-width:1.0;"/><text fill="#000000" font-family="sans-serif" font-size="14" lengthAdjust="spacing" textLength="133" x="449.5" y="499.5176">dance(music : Music)</text><ellipse cx="440.5" cy="511.8047" fill="#84BE84" rx="3" ry="3" style="stroke:#038048;stroke-width:1.0;"/><text fill="#000000" font-family="sans-serif" font-size="14" lengthAdjust="spacing" textLength="45" x="449.5" y="515.1582">laugh()</text><ellipse cx="440.5" cy="527.4453" fill="#84BE84" rx="3" ry="3" style="stroke:#038048;stroke-width:1.0;"/><text fill="#000000" font-family="sans-serif" font-size="14" lengthAdjust="spacing" textLength="116" x="449.5" y="530.7988">seat(table : Table)</text></g><!--MD5=[1aec0852f4be829138c29247caf07a9f]
class Waiter--><g id="elem_Waiter"><rect codeLine="62" fill="#F1F1F1" height="79.2813" id="Waiter" rx="2.5" ry="2.5" style="stroke:#181818;stroke-width:0.5;" width="149" x="743.5" y="404"/><ellipse cx="793.25" cy="420" fill="#ADD1B2" rx="11" ry="11" style="stroke:#181818;stroke-width:1.0;"/><path d="M795.25,416.5 Q795.4531,416 795.6875,415.75 Q795.9219,415.5 796.1875,415.5 Q796.6563,415.5 796.9531,415.7813 Q797.25,416.0625 797.25,416.7188 L797.25,418.2813 Q797.25,418.9375 796.9688,419.2188 Q796.6875,419.5 796.25,419.5 Q795.8594,419.5 795.6094,419.3281 Q795.3594,419.1563 795.25,418.7031 Q795.2031,418.3906 795.0313,418.2188 Q794.7188,417.8906 794.1563,417.7031 Q793.5938,417.5 793.0313,417.5 Q792.3281,417.5 791.7344,417.7813 Q791.1563,418.0625 790.7031,418.6875 Q790.25,419.3125 790.25,420.1719 L790.25,421.0938 Q790.25,422.125 791.0938,422.8125 Q791.9375,423.5 793.4375,423.5 Q794.3281,423.5 794.9531,423.2969 Q795.3125,423.1875 795.7188,422.8281 Q795.9844,422.625 796.125,422.5625 Q796.2656,422.5 796.4375,422.5 Q796.7656,422.5 797,422.7656 Q797.25,423.0156 797.25,423.375 Q797.25,423.7188 796.9063,424.125 Q796.4063,424.7188 795.6094,425.0469 Q794.5625,425.5 793.2813,425.5 Q791.7813,425.5 790.5781,424.9063 Q789.6094,424.4375 788.9219,423.4219 Q788.25,422.4063 788.25,421.2031 L788.25,420.1094 Q788.25,418.8594 788.8438,417.7656 Q789.4531,416.6719 790.5,416.0938 Q791.5625,415.5 792.75,415.5 Q793.4688,415.5 794.0938,415.75 Q794.7188,416 795.25,416.5 Z " fill="#000000"/><text fill="#000000" font-family="sans-serif" font-size="14" lengthAdjust="spacing" textLength="41" x="813.75" y="424.8535">Waiter</text><line style="stroke:#181818;stroke-width:0.5;" x1="744.5" x2="891.5" y1="436" y2="436"/><line style="stroke:#181818;stroke-width:0.5;" x1="744.5" x2="891.5" y1="444" y2="444"/><ellipse cx="754.5" cy="457.3203" fill="#84BE84" rx="3" ry="3" style="stroke:#038048;stroke-width:1.0;"/><text fill="#000000" font-family="sans-serif" font-size="14" lengthAdjust="spacing" textLength="123" x="763.5" y="460.6738">takeTray(Tray tray)</text><ellipse cx="754.5" cy="472.9609" fill="#84BE84" rx="3" ry="3" style="stroke:#038048;stroke-width:1.0;"/><text fill="#000000" font-family="sans-serif" font-size="14" lengthAdjust="spacing" textLength="31" x="763.5" y="476.3145">run()</text></g><!--MD5=[be3b115ffbbdf4eb953233506b897360]
reverse link FoodContainer to Table--><g id="link_FoodContainer_Table"><path d="M504.48,112.94 C464.05,138.72 415.31,169.8 377.66,193.81 " fill="none" id="FoodContainer-backto-Table" style="stroke:#181818;stroke-width:1.0;stroke-dasharray:7.0,7.0;"/><polygon fill="none" points="500.91,106.91,521.54,102.06,508.44,118.72,500.91,106.91" style="stroke:#181818;stroke-width:1.0;"/></g><!--MD5=[fbbe69bc01e18c16759bb388cfab7a69]
reverse link FoodContainer to Tray--><g id="link_FoodContainer_Tray"><path d="M664.17,112.49 C697.03,132.42 735.05,155.92 769,178 C780.31,185.36 792.38,193.52 803.58,201.23 " fill="none" id="FoodContainer-backto-Tray" style="stroke:#181818;stroke-width:1.0;stroke-dasharray:7.0,7.0;"/><polygon fill="none" points="660.51,118.46,647.02,102.12,667.75,106.47,660.51,118.46" style="stroke:#181818;stroke-width:1.0;"/></g><!--MD5=[0a8580ce6cfd7387244a90fbcfc1a575]
reverse link Eatable to Food--><g id="link_Eatable_Food"><path d="M984,285.8 C984,322.25 984,370.43 984,403.7 " fill="none" id="Eatable-backto-Food" style="stroke:#181818;stroke-width:1.0;stroke-dasharray:7.0,7.0;"/><polygon fill="none" points="977,285.64,984,265.64,991,285.64,977,285.64" style="stroke:#181818;stroke-width:1.0;"/></g><!--MD5=[dac3d9dd6a53ec2bb6d21e60c4a10e6d]
reverse link Eatable to Drink--><g id="link_Eatable_Drink"><path d="M1017.57,282 C1043.61,318.84 1079.24,369.26 1103.58,403.7 " fill="none" id="Eatable-backto-Drink" style="stroke:#181818;stroke-width:1.0;stroke-dasharray:7.0,7.0;"/><polygon fill="none" points="1011.83,286.01,1006.01,265.64,1023.27,277.93,1011.83,286.01" style="stroke:#181818;stroke-width:1.0;"/></g><!--MD5=[a4e0f5c9a90dd81c657363ae76ce7aeb]
reverse link Character to Shorty--><g id="link_Character_Shorty"><path d="M622.96,304.69 C611.24,318.86 598.74,333.97 586.48,348.81 " fill="none" id="Character-backto-Shorty" style="stroke:#181818;stroke-width:1.0;"/><polygon fill="none" points="617.67,300.1,635.81,289.15,628.46,309.02,617.67,300.1" style="stroke:#181818;stroke-width:1.0;"/></g><!--MD5=[d190bffd2fd97f6be45471336b7ecac2]
reverse link Character to Waiter--><g id="link_Character_Waiter"><path d="M728.28,306.29 C749.88,339.08 774.61,376.62 792.62,403.97 " fill="none" id="Character-backto-Waiter" style="stroke:#181818;stroke-width:1.0;"/><polygon fill="none" points="722.15,309.7,717,289.15,733.84,302,722.15,309.7" style="stroke:#181818;stroke-width:1.0;"/></g><!--MD5=[c967ff5aa73be737db9b2e806b6c4544]
link ReflectionType to Mirror--><g id="link_ReflectionType_Mirror"><path codeLine="66" d="M100,118.37 C100,140.82 100,166.47 100,187.76 " fill="none" id="ReflectionType-to-Mirror" style="stroke:#181818;stroke-width:1.0;"/><polygon fill="#181818" points="100,201.04,104,195.04,100,189.04,96,195.04,100,201.04" style="stroke:#181818;stroke-width:1.0;"/></g><!--MD5=[6b37153a8be8917e2cfc5dfb3ac7e584]
link Music to Shorty--><g id="link_Music_Shorty"><path codeLine="67" d="M509,281.18 C509,299.7 509,321.74 509,343.49 " fill="none" id="Music-to-Shorty" style="stroke:#181818;stroke-width:1.0;"/><polygon fill="#181818" points="509,348.72,513,339.72,509,343.72,505,339.72,509,348.72" style="stroke:#181818;stroke-width:1.0;"/></g><!--MD5=[5b3236ab8f5330de0e2345a4236b0c95]
link Eatable to Waiter--><g id="link_Eatable_Waiter"><path codeLine="68" d="M959.15,265.64 C930.79,301.18 884.22,359.52 852.39,399.41 " fill="none" id="Eatable-to-Waiter" style="stroke:#181818;stroke-width:1.0;"/><polygon fill="#181818" points="848.97,403.7,857.7036,399.1476,852.083,399.7873,851.4433,394.1667,848.97,403.7" style="stroke:#181818;stroke-width:1.0;"/></g><!--MD5=[11444ce28c698cdb5dca05b603733d50]
link Eatable to Shorty--><g id="link_Eatable_Shorty"><path codeLine="69" d="M956.62,265.72 C947.86,274.23 937.65,282.81 927,289 C846.4,335.85 813.63,317.17 726,349 C681.63,365.12 633.31,385.64 593.54,403.35 " fill="none" id="Eatable-to-Shorty" style="stroke:#181818;stroke-width:1.0;"/><polygon fill="#181818" points="588.74,405.49,598.5888,405.47,593.3049,403.45,595.3249,398.1661,588.74,405.49" style="stroke:#181818;stroke-width:1.0;"/></g><!--MD5=[a37787d5807dae574b386b7098bc9b96]
link Mirror to Shorty--><g id="link_Mirror_Shorty"><path codeLine="70" d="M161.23,265.64 C231.26,301.25 346.33,359.77 424.77,399.67 " fill="none" id="Mirror-to-Shorty" style="stroke:#181818;stroke-width:1.0;"/><polygon fill="#181818" points="429.42,402.03,423.198,394.3954,424.9594,399.7711,419.5837,401.5325,429.42,402.03" style="stroke:#181818;stroke-width:1.0;"/></g><!--MD5=[495f19b95d4c295df3752d9a3231e268]
link Table to Shorty--><g id="link_Table_Shorty"><path codeLine="71" d="M352.66,273.14 C373.32,295.51 400.24,324.67 425.9,352.48 " fill="none" id="Table-to-Shorty" style="stroke:#181818;stroke-width:1.0;"/><polygon fill="#181818" points="429.35,356.21,426.1877,346.8826,425.9598,352.5349,420.3075,352.307,429.35,356.21" style="stroke:#181818;stroke-width:1.0;"/></g><!--MD5=[0ff8862bc990fbc702882811f196a914]
link Tray to Waiter--><g id="link_Tray_Waiter"><path codeLine="72" d="M843.51,265.64 C838.42,300.89 830.1,358.58 824.35,398.44 " fill="none" id="Tray-to-Waiter" style="stroke:#181818;stroke-width:1.0;"/><polygon fill="#181818" points="823.6,403.7,828.8461,395.3646,824.3151,398.7514,820.9283,394.2204,823.6,403.7" style="stroke:#181818;stroke-width:1.0;"/></g><!--MD5=[fd367caf82ae7ddb1cd100c1582441d7]
@startuml
'https://plantuml.com/sequence-diagram

'left to right direction

'package utils {
    interface FoodContainer{
        + putFood(food : Eatable )
        + removeFood() : Eatable
    }
    abstract class Character {
        - name : String
        - age : int
        + getName() : String
        + getAge() : int
    }
    interface Eatable{
        + eated()
    }
    enum ReflectionType{
        CROOKED
        NORMAL
        FLATTENED
        WIDE
    }
'}

'package inanimate{
    class Table implements FoodContainer{
        - food[] : Eatable
        + eatFood(food : Eatable )
    }
    class Tray implements FoodContainer{
        - food[] : Eatable
    }
    class Music {
     - title : String
     + play()
     + getTitle() : String
    }
    class Food implements Eatable{
        - isSweet : bool
        - name : String
    }
    class Drink implements Eatable {
        - name : String
        - calories : int
    }
    class Mirror{
    # reflect() : ReflectionType
    }
    class Shorty extends Character{
            - sitting : bool
            - eating : bool
            - dancing : bool
            - looking : bool
            + eat(food : Eatable)
            + look(mirror: Mirror)
            + dance(music : Music)
            + laugh()
            + seat(table : Table)
        }
    class Waiter extends Character{
        + takeTray(Tray tray)
        + run()
    }
    ReflectionType - -* Mirror
    Music - -> Shorty
    Eatable - -> Waiter
    Eatable - -> Shorty
    Mirror - -> Shorty
    Table - -> Shorty
    Tray - -> Waiter

'}
@enduml

@startuml


    interface FoodContainer{
        + putFood(food : Eatable )
        + removeFood() : Eatable
    }
    abstract class Character {
        - name : String
        - age : int
        + getName() : String
        + getAge() : int
    }
    interface Eatable{
        + eated()
    }
    enum ReflectionType{
        CROOKED
        NORMAL
        FLATTENED
        WIDE
    }

    class Table implements FoodContainer{
        - food[] : Eatable
        + eatFood(food : Eatable )
    }
    class Tray implements FoodContainer{
        - food[] : Eatable
    }
    class Music {
     - title : String
     + play()
     + getTitle() : String
    }
    class Food implements Eatable{
        - isSweet : bool
        - name : String
    }
    class Drink implements Eatable {
        - name : String
        - calories : int
    }
    class Mirror{
    # reflect() : ReflectionType
    }
    class Shorty extends Character{
            - sitting : bool
            - eating : bool
            - dancing : bool
            - looking : bool
            + eat(food : Eatable)
            + look(mirror: Mirror)
            + dance(music : Music)
            + laugh()
            + seat(table : Table)
        }
    class Waiter extends Character{
        + takeTray(Tray tray)
        + run()
    }
    ReflectionType - -* Mirror
    Music - -> Shorty
    Eatable - -> Waiter
    Eatable - -> Shorty
    Mirror - -> Shorty
    Table - -> Shorty
    Tray - -> Waiter

@enduml

PlantUML version 1.2022.12(Sun Oct 23 21:12:26 MSK 2022)
(GPL source distribution)
Java Runtime: OpenJDK Runtime Environment
JVM: OpenJDK 64-Bit Server VM
Default Encoding: Cp1251
Language: ru
Country: RU
--></g></svg>